<svg xmlns="http://www.w3.org/2000/svg" xmlns:xlink="http://www.w3.org/1999/xlink" xml:space="preserve" width="222.783" height="323.556" viewBox="0 0 167.087 242.667"><defs><radialGradient xlink:href="#a" id="e" cx="48.231" cy="18.138" r="9.5" fx="48.231" fy="18.138" gradientTransform="rotate(179.329 61.82 29.768)scale(1.56063 2.29111)" gradientUnits="userSpaceOnUse"/><radialGradient xlink:href="#b" id="f" cx="171.487" cy="511.223" r="81.903" fx="171.487" fy="511.223" gradientTransform="rotate(-30.306 382.42 566.552)scale(1.3355 .78241)" gradientUnits="userSpaceOnUse"/><radialGradient xlink:href="#c" id="h" cx="171.487" cy="511.223" r="81.903" fx="171.487" fy="511.223" gradientTransform="rotate(-30.306 382.42 566.552)scale(1.3355 .78241)" gradientUnits="userSpaceOnUse"/><radialGradient xlink:href="#d" id="j" cx="181.694" cy="461.841" r="81.903" fx="181.694" fy="461.841" gradientTransform="rotate(-30.306 382.42 566.552)scale(1.3355 .78241)" gradientUnits="userSpaceOnUse"/><linearGradient id="a"><stop offset="0" style="stop-color:#000;stop-opacity:1"/><stop offset="1" style="stop-color:#000;stop-opacity:.65648854"/></linearGradient><linearGradient id="b"><stop offset="0" style="stop-color:#fff;stop-opacity:.53435117"/><stop offset="1" style="stop-color:#000;stop-opacity:0"/></linearGradient><linearGradient id="c"><stop offset="0" style="stop-color:#fff;stop-opacity:.51908398"/><stop offset="1" style="stop-color:#000;stop-opacity:0"/></linearGradient><linearGradient id="d"><stop offset="0" style="stop-color:#fff;stop-opacity:.70229006"/><stop offset="1" style="stop-color:#000;stop-opacity:0"/></linearGradient><filter id="g" width="1.279" height="1.325" x="-.139" y="-.162" color-interpolation-filters="sRGB"><feGaussianBlur stdDeviation="9.511"/></filter><filter id="i" width="1.279" height="1.325" x="-.139" y="-.162" color-interpolation-filters="sRGB"><feGaussianBlur stdDeviation="9.511"/></filter><filter id="k" width="1.279" height="1.325" x="-.139" y="-.162" color-interpolation-filters="sRGB"><feGaussianBlur stdDeviation="9.511"/></filter></defs><g style="fill-rule:nonzero;clip-rule:nonzero;stroke:#000;stroke-miterlimit:4"><path d="M166.837 235.548c0 3.777-3.087 6.869-6.871 6.869H7.11c-3.775 0-6.861-3.092-6.861-6.87V7.12C.25 3.343 3.336.25 7.11.25h152.856c3.784 0 6.87 3.093 6.87 6.87z" style="fill:#fff;stroke-width:.5"/></g><text xml:space="preserve" x="6.711" y="27.548" style="font-size:32px;font-style:normal;font-weight:400;line-height:125%;letter-spacing:0;word-spacing:0;fill:#000;fill-opacity:1;stroke:none;font-family:Bitstream Vera Sans"><tspan x="6.711" y="27.548" style="font-style:normal;font-variant:normal;font-weight:400;font-stretch:normal;font-family:Arial;-inkscape-font-specification:Arial">A</tspan></text><path d="M50.291 22.698s2.375-1.9 2.375-4.534c0-1.542-1.369-4.102-4.534-4.102s-4.534 2.561-4.534 4.102c0 2.634 2.375 4.534 2.375 4.534-2.638-2.055-7.34-.652-7.34 3.455 0 2.056 1.68 4.318 4.317 4.318 3.165 0 4.534-3.455 4.534-3.455s.402 3.938-1.943 6.046h5.182c-2.345-2.107-1.943-6.046-1.943-6.046s1.37 3.455 4.534 3.455c2.64 0 4.318-2.263 4.318-4.318 0-4.107-4.703-5.51-7.34-3.455" style="fill:url(#e);fill-opacity:1" transform="translate(-203.777 -22.114)scale(5.97203)"/><path d="M117.301 604.266s-8.067-94.95 22.857-122.857c34.761-31.369 140-11.429 140-11.429s-71.54 24.838-100 48.572c-27.21 22.692-62.857 85.714-62.857 85.714" style="fill:url(#f);fill-opacity:1;stroke:none;filter:url(#g)" transform="matrix(.22864 0 0 .24885 1.171 -6.44)"/><path d="M117.301 604.266s-8.067-94.95 22.857-122.857c34.761-31.369 140-11.429 140-11.429s-71.54 24.838-100 48.572c-27.21 22.692-62.857 85.714-62.857 85.714" style="fill:url(#h);fill-opacity:1;stroke:none;filter:url(#i)" transform="matrix(.22864 0 0 .24885 33.042 -51.982)"/><path d="M117.301 604.266s-8.067-94.95 22.857-122.857c34.761-31.369 140-11.429 140-11.429s-71.54 24.838-100 48.572c-27.21 22.692-62.857 85.714-62.857 85.714" style="fill:url(#j);fill-opacity:1;stroke:none;filter:url(#k)" transform="rotate(31.612 161.529 258.051)scale(.27645 .3311)"/><path d="M28.356 122.025v734.281h667.156v-734.28zm334.28 97.625c91.69 0 131.376 74.172 131.376 118.844 0 76.307-68.813 131.344-68.813 131.344 76.423-59.533 212.657-18.886 212.657 100.093 0 59.534-48.643 125.094-125.094 125.094-91.69 0-131.344-100.094-131.344-100.094s-11.653 114.117 56.281 175.157H287.574c67.935-61.069 56.313-175.157 56.313-175.157s-39.654 100.094-131.344 100.094c-76.423 0-125.094-65.531-125.094-125.094 0-118.979 136.234-159.626 212.657-100.093 0 0-68.813-55.037-68.813-131.344 0-44.643 39.654-118.844 131.344-118.844" style="fill:#fffeff;fill-opacity:1;fill-rule:nonzero;stroke:none" transform="translate(8.87 16.513)scale(.20615)"/><path d="M50.291 22.698s2.375-1.9 2.375-4.534c0-1.542-1.369-4.102-4.534-4.102s-4.534 2.561-4.534 4.102c0 2.634 2.375 4.534 2.375 4.534-2.638-2.055-7.34-.652-7.34 3.455 0 2.056 1.68 4.318 4.317 4.318 3.165 0 4.534-3.455 4.534-3.455s.402 3.938-1.943 6.046h5.182c-2.345-2.107-1.943-6.046-1.943-6.046s1.37 3.455 4.534 3.455c2.64 0 4.318-2.263 4.318-4.318 0-4.107-4.703-5.51-7.34-3.455" style="fill:#000" transform="translate(-54.025 10.018)scale(1.48565)"/><text xml:space="preserve" x="-160.464" y="-214.467" style="font-size:32px;font-style:normal;font-weight:400;line-height:125%;letter-spacing:0;word-spacing:0;fill:#000;fill-opacity:1;stroke:none;font-family:Bitstream Vera Sans" transform="scale(-1)"><tspan x="-160.464" y="-214.467" style="font-style:normal;font-variant:normal;font-weight:400;font-stretch:normal;font-family:Arial;-inkscape-font-specification:Arial">A</tspan></text><path d="M50.291 22.698s2.375-1.9 2.375-4.534c0-1.542-1.369-4.102-4.534-4.102s-4.534 2.561-4.534 4.102c0 2.634 2.375 4.534 2.375 4.534-2.638-2.055-7.34-.652-7.34 3.455 0 2.056 1.68 4.318 4.317 4.318 3.165 0 4.534-3.455 4.534-3.455s.402 3.938-1.943 6.046h5.182c-2.345-2.107-1.943-6.046-1.943-6.046s1.37 3.455 4.534 3.455c2.64 0 4.318-2.263 4.318-4.318 0-4.107-4.703-5.51-7.34-3.455" style="fill:#000" transform="translate(221.2 232.462)scale(-1.48565)"/></svg>